<svg xmlns="http://www.w3.org/2000/svg" xmlns:xlink="http://www.w3.org/1999/xlink" viewBox="0 0 26 29"><defs><linearGradient id="a" x1="-0.733" y1="-0.733" x2="1.784" y2="1.712" gradientUnits="objectBoundingBox"><stop offset="0" stop-color="#c5afff"/><stop offset="1" stop-color="#ffa5a1"/></linearGradient></defs><path d="M24,29H8a8.009,8.009,0,0,1-8-8V8A8.009,8.009,0,0,1,8,0H18a8.009,8.009,0,0,1,8,8V27A2,2,0,0,1,24,29Zm-3.5-7A1.5,1.5,0,1,0,22,23.5,1.5,1.5,0,0,0,20.5,22Zm-5,0A1.5,1.5,0,1,0,17,23.5,1.5,1.5,0,0,0,15.5,22Zm-5,0A1.5,1.5,0,1,0,12,23.5,1.5,1.5,0,0,0,10.5,22Z" fill="url(#a)"/></svg>