<svg xmlns="http://www.w3.org/2000/svg" viewBox="0 0 383.946 383.946"><path d="M383.691 12.826c-.016-.064-.04-.128-.056-.192-.272-1.272-.736-2.504-1.32-3.696-.152-.304-.304-.6-.472-.904-.688-1.208-1.488-2.368-2.52-3.4s-2.2-1.832-3.408-2.52a15.266 15.266 0 00-.88-.464c-1.224-.6-2.48-1.088-3.792-1.36-.04-.008-.064-.016-.096-.024-1.368-.272-2.76-.312-4.152-.224-.304.016-.608.048-.912.088-1.408.168-2.808.464-4.144 1.008l-351.992 144a16.003 16.003 0 00-9.928 15.584 15.988 15.988 0 0011.392 14.552l151.744 45.528 45.52 151.744a16.008 16.008 0 0014.552 11.384c.264.008.52.016.784.016a16.006 16.006 0 0014.808-9.944l144-352v-.016c.536-1.312.824-2.68.992-4.064.04-.344.08-.68.096-1.024.08-1.36.048-2.728-.216-4.072zM63.947 157.618l236.512-96.76-129.008 129.016-107.504-32.256zM226.323 320.01l-32.248-107.512 129-129-96.752 236.512z"/><path d="M139.315 244.634c-6.248-6.248-16.376-6.248-22.624 0l-40 40c-6.248 6.248-6.248 16.376 0 22.624 3.128 3.128 7.216 4.688 11.312 4.688s8.184-1.56 11.312-4.688l40-40c6.248-6.248 6.248-16.376 0-22.624zM51.315 244.634c-6.248-6.248-16.376-6.248-22.624 0l-24 24c-6.248 6.248-6.248 16.376 0 22.624 3.128 3.128 7.216 4.688 11.312 4.688s8.184-1.56 11.312-4.688l24-24c6.248-6.248 6.248-16.376 0-22.624zM139.315 332.634c-6.248-6.248-16.376-6.248-22.624 0l-24 24c-6.248 6.248-6.248 16.376 0 22.624 3.128 3.128 7.216 4.688 11.312 4.688s8.184-1.56 11.312-4.688l24-24c6.248-6.248 6.248-16.376 0-22.624z"/></svg>