<svg xmlns="http://www.w3.org/2000/svg" width="247" height="48" viewBox="0 0 247 48"><text transform="translate(0 38)" fill="#1e1e1e" font-size="40" font-family="Roboto-Black, Roboto" font-weight="800" letter-spacing="0.1em"><tspan x="0" y="0">CHATR</tspan></text><path d="M8,0H18a8,8,0,0,1,8,8V27a2,2,0,0,1-2,2H8a8,8,0,0,1-8-8V8A8,8,0,0,1,8,0Z" transform="translate(151 9)" fill="#1e1e1e"/><g transform="translate(30)"><path d="M8,0H18a8,8,0,0,1,8,8V21a8,8,0,0,1-8,8H2a2,2,0,0,1-2-2V8A8,8,0,0,1,8,0Z" transform="translate(151 9)" fill="#1e1e1e"/></g><text transform="translate(211 38)" fill="#1e1e1e" font-size="40" font-family="Roboto-Black, Roboto" font-weight="800" letter-spacing="0.1em"><tspan x="0" y="0">M</tspan></text></svg>